<mxfile host="app.diagrams.net" modified="2025-10-28T00:00:00.000Z" agent="Claude" version="24.0.0">
  <diagram name="Figure 3: Embedded in CUBE" id="embedded">
    <mxGraphModel dx="1400" dy="950" grid="1" gridSize="10" guides="1" tooltips="1" connect="1" arrows="1" fold="1" page="1" pageScale="1" pageWidth="1200" pageHeight="1050" math="0" shadow="0">
      <root>
        <mxCell id="0"/>
        <mxCell id="1" parent="0"/>

        <!-- User visualization intent -->
        <mxCell id="viz_intent" value="user visualization&#xa;intent" style="rounded=1;whiteSpace=wrap;html=1;fillColor=#E8F4F8;strokeColor=#333333;strokeWidth=2;fontSize=12;align=center;" vertex="1" parent="1">
          <mxGeometry x="100" y="50" width="200" height="60" as="geometry"/>
        </mxCell>

        <!-- User behavioral intent -->
        <mxCell id="behav_intent" value="user behavioral&#xa;intent" style="rounded=1;whiteSpace=wrap;html=1;fillColor=#E8F4F8;strokeColor=#333333;strokeWidth=2;fontSize=12;align=center;" vertex="1" parent="1">
          <mxGeometry x="900" y="50" width="200" height="60" as="geometry"/>
        </mxCell>

        <!-- ChRIS UI container (simpler, thinner) -->
        <mxCell id="ui_container" value="ChRIS UI" style="rounded=0;whiteSpace=wrap;html=1;fillColor=#B3D9E6;strokeColor=#333333;strokeWidth=3;fontSize=14;fontStyle=1;verticalAlign=top;align=center;" vertex="1" parent="1">
          <mxGeometry x="50" y="170" width="1100" height="230" as="geometry"/>
        </mxCell>

        <!-- React components layer -->
        <mxCell id="react_layer" value="React components" style="rounded=0;whiteSpace=wrap;html=1;fillColor=#B3D9E6;strokeColor=#333333;strokeWidth=1;fontSize=11;align=center;" vertex="1" parent="1">
          <mxGeometry x="60" y="210" width="1080" height="70" as="geometry"/>
        </mxCell>

        <!-- JS thin client library -->
        <mxCell id="js_lib" value="js thin client library" style="rounded=0;whiteSpace=wrap;html=1;fillColor=#B3D9E6;strokeColor=#333333;strokeWidth=1;fontSize=11;align=center;" vertex="1" parent="1">
          <mxGeometry x="60" y="320" width="1080" height="70" as="geometry"/>
        </mxCell>

        <!-- CUBE container (NOW contains intent logic) -->
        <mxCell id="cube_container" value="CUBE" style="rounded=0;whiteSpace=wrap;html=1;fillColor=#C8E6C9;strokeColor=#333333;strokeWidth=3;fontSize=14;fontStyle=1;verticalAlign=top;align=center;" vertex="1" parent="1">
          <mxGeometry x="50" y="460" width="1100" height="430" as="geometry"/>
        </mxCell>

        <!-- Dual API layer with vertical divider -->
        <mxCell id="cj_api" value="collection+json API" style="rounded=0;whiteSpace=wrap;html=1;fillColor=#C8E6C9;strokeColor=#333333;strokeWidth=1;fontSize=11;align=center;" vertex="1" parent="1">
          <mxGeometry x="60" y="500" width="490" height="60" as="geometry"/>
        </mxCell>

        <mxCell id="intent_api" value="intent API" style="rounded=0;whiteSpace=wrap;html=1;fillColor=#C8E6C9;strokeColor=#333333;strokeWidth=1;fontSize=11;align=center;" vertex="1" parent="1">
          <mxGeometry x="590" y="500" width="550" height="60" as="geometry"/>
        </mxCell>

        <!-- Vertical divider line between APIs -->
        <mxCell id="divider" value="" style="line;strokeWidth=2;html=1;strokeColor=#333333;" vertex="1" parent="1">
          <mxGeometry x="570" y="500" width="10" height="60" as="geometry"/>
        </mxCell>

        <!-- Intent Logic Handler -->
        <mxCell id="intent_handler" value="intent&#xa;logic handler" style="rounded=1;whiteSpace=wrap;html=1;fillColor=#FFCCCC;strokeColor=#333333;strokeWidth=2;fontSize=11;align=center;dashed=1;dashPattern=8 8;" vertex="1" parent="1">
          <mxGeometry x="730" y="600" width="350" height="120" as="geometry"/>
        </mxCell>

        <!-- CUBE Python/Django internals -->
        <mxCell id="cube_internals" value="CUBE Python/Django internals" style="rounded=0;whiteSpace=wrap;html=1;fillColor=#C8E6C9;strokeColor=#333333;strokeWidth=1;fontSize=11;align=center;" vertex="1" parent="1">
          <mxGeometry x="60" y="770" width="1080" height="110" as="geometry"/>
        </mxCell>

        <!-- Arrows -->
        <mxCell id="arrow1" style="edgeStyle=orthogonalEdgeStyle;rounded=0;orthogonalLoop=1;jettySize=auto;html=1;strokeColor=#555555;strokeWidth=2;endArrow=classic;endFill=1;" edge="1" parent="1" source="viz_intent" target="react_layer">
          <mxGeometry relative="1" as="geometry"/>
        </mxCell>

        <mxCell id="arrow2" style="edgeStyle=orthogonalEdgeStyle;rounded=0;orthogonalLoop=1;jettySize=auto;html=1;strokeColor=#555555;strokeWidth=2;endArrow=classic;endFill=1;" edge="1" parent="1" source="behav_intent" target="react_layer">
          <mxGeometry relative="1" as="geometry"/>
        </mxCell>

        <!-- Viz path goes to collection+json API -->
        <mxCell id="arrow3" style="edgeStyle=orthogonalEdgeStyle;rounded=0;orthogonalLoop=1;jettySize=auto;html=1;entryX=0.2;entryY=0;entryDx=0;entryDy=0;strokeColor=#555555;strokeWidth=2;endArrow=classic;endFill=1;" edge="1" parent="1" source="js_lib" target="cj_api">
          <mxGeometry relative="1" as="geometry">
            <Array as="points">
              <mxPoint x="200" y="390"/>
              <mxPoint x="200" y="500"/>
            </Array>
          </mxGeometry>
        </mxCell>

        <!-- Behavioral path goes to intent API -->
        <mxCell id="arrow4" style="edgeStyle=orthogonalEdgeStyle;rounded=0;orthogonalLoop=1;jettySize=auto;html=1;entryX=0.5;entryY=0;entryDx=0;entryDy=0;strokeColor=#555555;strokeWidth=2;endArrow=classic;endFill=1;" edge="1" parent="1" source="js_lib" target="intent_handler">
          <mxGeometry relative="1" as="geometry">
            <Array as="points">
              <mxPoint x="1000" y="390"/>
              <mxPoint x="905" y="390"/>
            </Array>
          </mxGeometry>
        </mxCell>

        <!-- Multiple arrows from Intent Handler to internals -->
        <mxCell id="arrow5a" style="edgeStyle=orthogonalEdgeStyle;rounded=0;orthogonalLoop=1;jettySize=auto;html=1;strokeColor=#555555;strokeWidth=1.5;endArrow=classic;endFill=1;dashed=1;" edge="1" parent="1" source="intent_handler" target="cube_internals">
          <mxGeometry relative="1" as="geometry">
            <Array as="points">
              <mxPoint x="850" y="720"/>
              <mxPoint x="550" y="720"/>
            </Array>
          </mxGeometry>
        </mxCell>
        <mxCell id="arrow5b" style="edgeStyle=orthogonalEdgeStyle;rounded=0;orthogonalLoop=1;jettySize=auto;html=1;strokeColor=#555555;strokeWidth=1.5;endArrow=classic;endFill=1;dashed=1;" edge="1" parent="1" source="intent_handler" target="cube_internals">
          <mxGeometry relative="1" as="geometry">
            <Array as="points">
              <mxPoint x="905" y="720"/>
              <mxPoint x="600" y="720"/>
            </Array>
          </mxGeometry>
        </mxCell>
        <mxCell id="arrow5c" style="edgeStyle=orthogonalEdgeStyle;rounded=0;orthogonalLoop=1;jettySize=auto;html=1;strokeColor=#555555;strokeWidth=1.5;endArrow=classic;endFill=1;dashed=1;" edge="1" parent="1" source="intent_handler" target="cube_internals">
          <mxGeometry relative="1" as="geometry">
            <Array as="points">
              <mxPoint x="960" y="720"/>
              <mxPoint x="650" y="720"/>
            </Array>
          </mxGeometry>
        </mxCell>

      </root>
    </mxGraphModel>
  </diagram>
</mxfile>
